<svg width="273" height="312" viewBox="0 0 273 312" fill="none" xmlns="http://www.w3.org/2000/svg">
<path fill-rule="evenodd" clip-rule="evenodd" d="M145.067 21.8643C140.072 18.7525 133.741 18.7525 128.745 21.8643L28.258 84.4581C23.7337 87.2763 20.9836 92.2294 20.9836 97.5596V167.833C20.9836 173.226 16.6115 177.598 11.2184 177.598C5.82517 177.598 1.45312 173.226 1.45312 167.833V97.5596C1.45312 85.485 7.68296 74.2648 17.9319 67.8807L118.419 5.28692C129.736 -1.7623 144.077 -1.76231 155.393 5.28692L261.469 71.3616C268.242 75.5808 272.359 82.996 272.359 90.976C272.359 103.739 262.013 114.085 249.251 114.085H84.3722C75.8475 114.085 68.9368 120.995 68.9368 129.52V142.632C68.9368 151.157 75.8475 158.068 84.3722 158.068H246.559C250.022 158.068 252.829 155.26 252.829 151.797C252.829 148.334 250.022 145.527 246.559 145.527H92.1753C86.7821 145.527 82.41 141.155 82.41 135.762C82.41 130.368 86.7821 125.996 92.1753 125.996H246.559C260.808 125.996 272.359 137.548 272.359 151.797C272.359 166.047 260.808 177.598 246.559 177.598H84.3722C65.0611 177.598 49.4064 161.943 49.4064 142.632V129.52C49.4064 110.209 65.0611 94.5541 84.3722 94.5541H249.251C251.227 94.5541 252.829 92.9521 252.829 90.976C252.829 89.7404 252.192 88.5923 251.143 87.939L145.067 21.8643Z" fill="black"/>
<path d="M66.3206 291.276H55.4611L54.5885 283.422C51.4858 288.076 44.6986 292.731 34.3238 292.731C15.8045 292.731 0 279.156 0 256.952C0 234.748 16.5802 221.077 35.1965 221.077C53.231 221.077 63.2179 231.646 66.6115 242.214L53.8128 246.771C52.0675 240.663 46.3469 233.585 35.1965 233.585C24.8218 233.585 13.5744 240.663 13.5744 256.952C13.5744 272.466 23.7552 280.514 35.2934 280.514C47.9952 280.514 52.9402 271.981 53.7158 267.133H31.9968V255.498H66.3206V291.276Z" fill="black"/>
<path d="M87.87 291.276H74.9743V243.572H87.87V291.276ZM73.423 227.961C73.423 223.501 77.0105 219.914 81.3737 219.914C85.8338 219.914 89.3244 223.501 89.3244 227.961C89.3244 232.227 85.8338 235.815 81.3737 235.815C77.0105 235.815 73.423 232.227 73.423 227.961Z" fill="black"/>
<path d="M142.787 243.572L124.268 291.276H111.372L91.8832 243.572H106.039L117.869 275.569L129.213 243.572H142.787Z" fill="black"/>
<path d="M159.651 291.276H146.755V243.572H159.651V291.276ZM145.204 227.961C145.204 223.501 148.791 219.914 153.154 219.914C157.615 219.914 161.105 223.501 161.105 227.961C161.105 232.227 157.615 235.815 153.154 235.815C148.791 235.815 145.204 232.227 145.204 227.961Z" fill="black"/>
<path d="M182.474 263.836V291.276H169.578V243.572H182.086V249.486C184.995 244.541 190.716 242.311 195.855 242.311C207.684 242.311 213.114 250.747 213.114 261.219V291.276H200.218V263.449C200.218 258.116 197.6 253.947 191.394 253.947C185.771 253.947 182.474 258.31 182.474 263.836Z" fill="black"/>
<path d="M218.93 293.894L230.565 290.791C231.437 296.027 235.607 299.809 241.715 299.809C249.86 299.809 254.417 295.736 254.417 286.525V283.035C252.478 286.137 248.018 289.143 241.133 289.143C228.432 289.143 218.93 279.35 218.93 265.97C218.93 253.365 228.044 242.699 241.133 242.699C248.696 242.699 253.06 245.996 254.708 249.195V243.572H267.119V286.137C267.119 299.227 260.041 311.153 242.103 311.153C229.013 311.153 220.287 303.008 218.93 293.894ZM243.364 278.09C249.957 278.09 254.611 273.339 254.611 265.97C254.611 258.601 249.569 253.947 243.364 253.947C236.964 253.947 231.922 258.601 231.922 265.97C231.922 273.435 236.673 278.09 243.364 278.09Z" fill="black"/>
</svg>
