<svg width="271" height="178" viewBox="0 0 271 178" fill="none" xmlns="http://www.w3.org/2000/svg">
<path fill-rule="evenodd" clip-rule="evenodd" d="M143.614 21.8643C138.618 18.7525 132.288 18.7525 127.292 21.8643L26.8049 84.4581C22.2806 87.2763 19.5305 92.2294 19.5305 97.5596V167.833C19.5305 173.226 15.1584 177.598 9.76523 177.598C4.37204 177.598 0 173.226 0 167.833V97.5596C0 85.485 6.22983 74.2648 16.4788 67.8807L116.966 5.28692C128.283 -1.7623 142.624 -1.76231 153.94 5.28692L260.016 71.3616C266.789 75.5808 270.906 82.996 270.906 90.976C270.906 103.739 260.56 114.085 247.798 114.085H82.919C74.3943 114.085 67.4837 120.995 67.4837 129.52V142.632C67.4837 151.157 74.3943 158.068 82.9191 158.068H245.106C248.569 158.068 251.376 155.26 251.376 151.797C251.376 148.334 248.569 145.527 245.106 145.527H90.7221C85.3289 145.527 80.9569 141.155 80.9569 135.762C80.9569 130.368 85.3289 125.996 90.7221 125.996H245.106C259.355 125.996 270.906 137.548 270.906 151.797C270.906 166.047 259.355 177.598 245.106 177.598H82.9191C63.608 177.598 47.9532 161.943 47.9532 142.632V129.52C47.9532 110.209 63.6079 94.5541 82.919 94.5541H247.798C249.774 94.5541 251.376 92.9521 251.376 90.976C251.376 89.7404 250.738 88.5923 249.69 87.939L143.614 21.8643Z" fill="black"/>
</svg>
